<svg width="480" height="96" viewBox="0 0 480 96" fill="none" xmlns="http://www.w3.org/2000/svg">
<path d="M71.6706 73.9455L44.9738 92.1467L39.2825 88.435L38.4302 91.3631L45.0082 95.6522L73.932 75.9457L80.2419 63.649L74.5231 68.3848L71.6706 73.9455Z" fill="white"/>
<path d="M3.45769 15.8366L44.9876 3.05871L85.2528 15.8298L85.6515 41.6674L88.5934 43.3514L88.1466 13.6783L45.0014 0L0.57082 13.6715L0.124023 42.9184L3.08652 40.0521L3.45769 15.8366Z" fill="white"/>
<path d="M88.648 46.7469L85.6993 45.0629L79.7674 41.6742L73.1276 37.8801L68.103 26.7587L59.3393 21.3836L44.788 16.0909L43.2964 13.0185L36.9865 10.434L31.7901 11.2795L28.264 14.5856L27.2261 20.9162L7.73961 39.6741L3.02435 44.2175V44.2037L0.0618593 47.0494V47.07L0 47.1318L0.0618593 47.2487V47.2693H0.0687396L5.38885 57.6278L14.7919 75.9526L15.4448 76.3787L35.873 89.7134L35.8799 89.6928H35.8867L36.7391 86.7578L42.0592 68.4055L58.3976 69.0722L73.4988 65.4361L77.9391 61.7588L79.8362 60.1916L83.651 57.0298L83.7541 56.9404L88.6549 47.2693H88.6687V47.2418L88.8611 46.8569L88.648 46.7469ZM57.9371 23.9474L65.5117 28.5939L66.2128 55.2083L33.7766 57.3184L38.3956 44.3343L33.7697 30.4429L51.3385 21.5623L57.9371 23.9474ZM30.9859 16.0428L33.1373 14.022L36.636 13.4515L41.1519 15.3005L42.6778 18.4348L47.5718 20.2013L32.7318 27.7004L30.0992 21.4523L30.9859 16.0428ZM28.0715 24.1605L30.6285 30.2229L34.897 43.0421L5.56069 45.8396L28.0715 24.1605ZM8.52319 57.3597L4.18598 48.9121L34.7114 45.9977L30.3879 58.1433L16.4415 72.7839L8.52319 57.3597ZM34.1615 85.1013L18.483 74.8803L31.7626 60.9408L39.296 67.4088L34.1615 85.1013ZM57.5865 66.1234L41.5231 65.4704L35.33 60.1503L64.2745 58.267L57.5865 66.1234ZM72.1447 62.7554L62.2605 65.1336L68.3367 57.992L78.7089 57.3184L72.1447 62.7554ZM69.1341 55.0227L68.6048 34.9725L70.8524 39.9421L77.3754 43.6676L80.5923 54.2735L69.1341 55.0227ZM81.3209 55.1533L81.314 55.0983L81.3552 55.0845L81.3209 55.1533ZM82.9499 51.9777L81.0666 45.7778L84.9776 48.0117L82.9499 51.9777Z" fill="white"/>
<path d="M112.657 31.0547C111.331 32.4225 110.664 34.5464 110.664 37.4333V39.2685H105.207V42.6366H110.664V65.6492H114.994V42.6366H124.061V39.2685H114.994V36.9384C114.994 35.3231 115.297 34.1959 115.902 33.5566C116.507 32.9174 117.586 32.6012 119.139 32.6012H124.061V28.9995H118.857C116.046 29.0063 113.984 29.6868 112.657 31.0547Z" fill="white"/>
<path d="M144.605 54.2322C144.605 56.9197 144.062 58.9749 142.983 60.4115C141.897 61.8481 140.337 62.5629 138.296 62.5629C136.536 62.5629 135.237 62.0062 134.398 60.8926C133.56 59.7791 133.14 58.0332 133.14 55.6619V39.3166H128.81V55.6619C128.81 59.243 129.47 61.9168 130.79 63.6833C132.109 65.4498 134.116 66.3365 136.818 66.3365C138.591 66.3365 140.145 65.9447 141.471 65.1611C142.798 64.3775 143.842 63.2228 144.612 61.6968V65.656H148.97V39.3235H144.612V54.2322H144.605Z" fill="white"/>
<path d="M166.738 38.6362C164.931 38.6362 163.37 39.0279 162.051 39.8047C160.731 40.5814 159.686 41.7224 158.916 43.2346V39.2754H154.586V65.6561H158.916V50.7473C158.916 48.0598 159.459 46.0046 160.552 44.568C161.645 43.1315 163.205 42.4097 165.226 42.4097C167 42.4097 168.306 42.9665 169.137 44.08C169.969 45.1935 170.388 46.9394 170.388 49.3108V65.6561H174.746V49.3108C174.746 45.7297 174.079 43.0558 172.753 41.2893C171.433 39.5228 169.426 38.6362 166.738 38.6362Z" fill="white"/>
<path d="M192.219 38.6362C188.136 38.6362 184.947 39.8597 182.644 42.3066C180.341 44.7536 179.193 48.1491 179.193 52.4795C179.193 56.8098 180.341 60.2053 182.644 62.6523C184.947 65.0993 188.136 66.3296 192.219 66.3296C193.504 66.3296 194.769 66.1578 195.999 65.821C197.23 65.4842 198.432 64.9756 199.594 64.3019V59.8067C198.57 60.7827 197.463 61.4976 196.274 61.965C195.078 62.4255 193.731 62.6592 192.226 62.6592C189.524 62.6592 187.442 61.7794 185.971 60.0129C184.5 58.2464 183.771 55.7375 183.771 52.4863C183.771 49.2214 184.5 46.7057 185.964 44.953C187.421 43.1933 189.511 42.3135 192.226 42.3135C193.683 42.3135 194.996 42.5403 196.144 42.994C197.298 43.4476 198.446 44.19 199.594 45.2073V40.6639C198.371 39.9696 197.154 39.461 195.944 39.1311C194.728 38.8011 193.49 38.6362 192.219 38.6362Z" fill="white"/>
<path d="M215.829 31.7833H211.499V39.2754H204.46V42.6434H211.499V56.961C211.499 60.1503 212.166 62.3912 213.499 63.6971C214.833 65.0031 217.128 65.6492 220.38 65.6492H225.679V62.1849H220.806C218.971 62.1849 217.678 61.8 216.943 61.0302C216.207 60.2604 215.836 58.9063 215.836 56.9542V42.6366H225.679V39.2685H215.836V31.7833H215.829Z" fill="white"/>
<path d="M243.708 39.3716H232.615V42.7397H239.378V62.2812H230.779V65.6492H252.307V62.2812H243.708V39.3716Z" fill="white"/>
<path d="M243.708 29.1232H239.378V34.5876H243.708V29.1232Z" fill="white"/>
<path d="M265.655 38.6362C261.999 38.6362 259.201 39.8184 257.27 42.1898C255.338 44.5611 254.376 47.991 254.376 52.4795C254.376 56.9885 255.345 60.4184 257.27 62.7829C259.201 65.1474 261.992 66.3296 265.655 66.3296C269.326 66.3296 272.13 65.1474 274.062 62.7829C275.993 60.4184 276.962 56.9885 276.962 52.4795C276.962 47.991 275.993 44.5611 274.055 42.1898C272.11 39.8253 269.312 38.6362 265.655 38.6362ZM270.673 60.0816C269.546 61.8 267.869 62.6592 265.655 62.6592C263.456 62.6592 261.793 61.8 260.665 60.0816C259.538 58.3632 258.967 55.8338 258.967 52.4863C258.967 49.1252 259.531 46.5888 260.665 44.8773C261.799 43.1658 263.463 42.3135 265.655 42.3135C267.869 42.3135 269.539 43.1727 270.673 44.8773C271.807 46.5888 272.371 49.1252 272.371 52.4863C272.364 55.8338 271.8 58.3632 270.673 60.0816Z" fill="white"/>
<path d="M293.864 38.6362C292.057 38.6362 290.496 39.0279 289.177 39.8047C287.857 40.5814 286.812 41.7224 286.042 43.2346V39.2754H281.712V65.6561H286.042V50.7473C286.042 48.0598 286.585 46.0046 287.678 44.568C288.771 43.1315 290.331 42.4097 292.352 42.4097C294.126 42.4097 295.431 42.9665 296.263 44.08C297.095 45.1935 297.514 46.9394 297.514 49.3108V65.6561H301.872V49.3108C301.872 45.7297 301.205 43.0558 299.879 41.2893C298.559 39.5228 296.552 38.6362 293.864 38.6362Z" fill="white"/>
<path d="M326.383 42.4991C325.428 41.2137 324.17 40.2445 322.63 39.6053C321.084 38.9592 319.221 38.643 317.035 38.643C315.654 38.643 314.231 38.7942 312.76 39.1035C311.289 39.4128 309.756 39.8665 308.155 40.4782V44.8086C309.584 43.9906 311.055 43.372 312.561 42.9458C314.066 42.5197 315.557 42.3066 317.035 42.3066C319.345 42.3066 321.022 42.7809 322.074 43.7294C323.125 44.678 323.661 46.2039 323.675 48.3072V48.9877H317.86C314.045 48.9877 311.152 49.7506 309.179 51.2697C307.206 52.7956 306.223 55.0226 306.223 57.9576C306.223 60.5008 307.027 62.5285 308.629 64.0476C310.23 65.5598 312.375 66.3227 315.056 66.3227C317.063 66.3227 318.774 65.9516 320.176 65.2024C321.579 64.4532 322.747 63.2984 323.675 61.7312V65.6422H328.033V50.5961C328.033 48.2866 327.909 46.5544 327.655 45.3997C327.407 44.2587 326.981 43.2895 326.383 42.4991ZM323.675 53.3592C323.661 56.2805 322.967 58.5694 321.606 60.2259C320.238 61.8824 318.362 62.7141 315.977 62.7141C314.279 62.7141 312.952 62.2742 311.997 61.3944C311.042 60.5146 310.56 59.2842 310.56 57.6964C310.56 55.9368 311.2 54.6171 312.478 53.7304C313.757 52.8437 315.661 52.3969 318.19 52.3969H319.627H323.675V53.3592V53.3592Z" fill="white"/>
<path d="M339.979 60.5215C339.264 59.5317 338.907 58.0677 338.907 56.1156V28.8689H329.215V32.2575H334.576V56.1156C334.576 59.1606 335.284 61.5113 336.707 63.1679C338.13 64.8244 340.13 65.6492 342.721 65.6492H348.206V61.9993H343.141C341.752 61.9993 340.694 61.5044 339.979 60.5215Z" fill="white"/>
<path d="M378.395 50.7886L376.656 50.4586C373.783 49.9087 371.982 49.3451 371.26 48.7608C370.539 48.1766 370.174 47.3037 370.174 46.1214C370.174 44.8154 370.656 43.8463 371.625 43.2139C372.587 42.5747 374.051 42.2585 376.017 42.2585C377.323 42.2585 378.601 42.4372 379.852 42.8015C381.11 43.1658 382.354 43.7019 383.598 44.4236V40.1827C382.341 39.6672 381.062 39.2754 379.763 39.0142C378.457 38.753 377.103 38.6224 375.687 38.6224C372.518 38.6224 370.071 39.3097 368.36 40.6844C366.648 42.0591 365.796 44.0112 365.796 46.5407C365.796 48.534 366.367 50.1081 367.514 51.2628C368.662 52.4176 370.484 53.2355 372.979 53.7235L374.601 54.0535L374.787 54.1016C378.636 54.8714 380.554 56.2599 380.554 58.267C380.554 59.6623 380.024 60.7552 378.973 61.5319C377.921 62.3086 376.436 62.7004 374.519 62.7004C373.199 62.7004 371.803 62.4942 370.326 62.0749C368.848 61.6556 367.301 61.037 365.686 60.2053V64.68C367.349 65.2299 368.896 65.6423 370.326 65.9172C371.755 66.1922 373.123 66.3296 374.422 66.3296C377.722 66.3296 380.292 65.5941 382.148 64.1301C383.997 62.6591 384.925 60.6246 384.925 58.0195C384.925 56.0537 384.375 54.4659 383.262 53.2355C382.148 52.0052 380.547 51.201 378.395 50.7886Z" fill="white"/>
<path d="M401.099 38.6362C397.016 38.6362 393.826 39.8597 391.524 42.3066C389.221 44.7536 388.073 48.1491 388.073 52.4795C388.073 56.8098 389.221 60.2053 391.524 62.6523C393.826 65.0993 397.016 66.3296 401.099 66.3296C402.384 66.3296 403.649 66.1578 404.879 65.821C406.109 65.4842 407.312 64.9756 408.474 64.3019V59.8067C407.45 60.7827 406.343 61.4976 405.154 61.965C403.958 62.4255 402.611 62.6592 401.105 62.6592C398.404 62.6592 396.321 61.7794 394.851 60.0129C393.38 58.2464 392.651 55.7375 392.651 52.4863C392.651 49.2214 393.38 46.7057 394.844 44.953C396.301 43.1933 398.39 42.3135 401.105 42.3135C402.563 42.3135 403.875 42.5403 405.023 42.994C406.178 43.4476 407.326 44.19 408.474 45.2073V40.6639C407.25 39.9696 406.034 39.461 404.824 39.1311C403.607 38.8011 402.37 38.6362 401.099 38.6362Z" fill="white"/>
<path d="M479.622 45.4135C479.368 44.2587 478.949 43.2896 478.351 42.506C477.395 41.2206 476.137 40.2514 474.598 39.6122C473.051 38.9661 471.188 38.6499 469.003 38.6499C467.621 38.6499 466.198 38.8011 464.727 39.1104C463.256 39.4197 461.723 39.8734 460.122 40.4851V44.8155C461.552 43.9975 463.023 43.3789 464.528 42.9527C466.033 42.5266 467.525 42.3135 469.003 42.3135C471.312 42.3135 472.989 42.7878 474.041 43.7363C475.093 44.6849 475.629 46.2108 475.642 48.3141V48.9946H469.827C466.013 48.9946 463.119 49.7575 461.146 51.2766C459.173 52.8025 458.19 55.0296 458.19 57.9646C458.19 60.5078 458.995 62.5354 460.596 64.0545C462.198 65.5667 464.342 66.3296 467.023 66.3296C469.03 66.3296 470.742 65.9585 472.144 65.2093C473.546 64.46 474.714 63.3053 475.642 61.7381V65.6492H480V50.603C479.993 48.2935 479.87 46.5613 479.622 45.4135ZM475.642 53.3593C475.629 56.2805 474.934 58.5694 473.573 60.2259C472.206 61.8825 470.329 62.7142 467.944 62.7142C466.246 62.7142 464.92 62.2743 463.964 61.3944C463.009 60.5146 462.528 59.2843 462.528 57.6965C462.528 55.9369 463.167 54.6171 464.445 53.7305C465.724 52.8438 467.628 52.397 470.157 52.397H471.594H475.642V53.3593Z" fill="white"/>
<path d="M432.751 42.4991C431.796 41.2137 430.538 40.2445 428.998 39.6053C427.451 38.9592 425.589 38.643 423.403 38.643C422.021 38.643 420.599 38.7942 419.128 39.1035C417.657 39.4128 416.124 39.8665 414.522 40.4782V44.8086C415.952 43.9906 417.416 43.372 418.928 42.9458C420.434 42.5197 421.925 42.3066 423.403 42.3066C425.712 42.3066 427.39 42.7809 428.441 43.7294C429.493 44.678 430.029 46.2039 430.043 48.3072V48.9877H424.228C420.413 48.9877 417.519 49.7506 415.546 51.2697C413.574 52.7956 412.591 55.0226 412.591 57.9576C412.591 60.5008 413.395 62.5285 414.997 64.0476C416.598 65.5598 418.743 66.3227 421.423 66.3227C423.43 66.3227 425.142 65.9516 426.544 65.2024C427.946 64.4532 429.115 63.2984 430.043 61.7312V65.6422H434.401V50.5961C434.401 48.2866 434.277 46.5544 434.023 45.3997C433.768 44.2587 433.342 43.2895 432.751 42.4991ZM430.036 53.3592C430.022 56.2805 429.328 58.5694 427.967 60.2259C426.599 61.8824 424.723 62.7141 422.338 62.7141C420.64 62.7141 419.313 62.2742 418.358 61.3944C417.402 60.5146 416.921 59.2842 416.921 57.6964C416.921 55.9368 417.56 54.6171 418.839 53.7304C420.117 52.8437 422.021 52.3969 424.551 52.3969H425.987H430.036V53.3592Z" fill="white"/>
<path d="M446.347 60.5215C445.632 59.5317 445.275 58.0677 445.275 56.1156V28.8689H435.583V32.2575H440.944V56.1156C440.944 59.1606 441.652 61.5113 443.075 63.1679C444.498 64.8244 446.498 65.6492 449.089 65.6492H454.575V61.9993H449.509C448.113 61.9993 447.055 61.5044 446.347 60.5215Z" fill="white"/>
</svg>
